<svg width="32" height="32" viewBox="0 0 32 32" fill="none" xmlns="http://www.w3.org/2000/svg">
<g clip-path="url(#clip0_473_207)">
<path d="M25.3327 13.3333V15.9999C25.3327 18.4753 24.3494 20.8492 22.599 22.5996C20.8487 24.3499 18.4747 25.3333 15.9993 25.3333M15.9993 25.3333C13.524 25.3333 11.15 24.3499 9.39969 22.5996C7.64935 20.8492 6.66602 18.4753 6.66602 15.9999V13.3333M15.9993 25.3333V30.6666M10.666 30.6666H21.3327M15.9993 1.33325C14.9385 1.33325 13.9211 1.75468 13.1709 2.50482C12.4208 3.25497 11.9993 4.27239 11.9993 5.33325V15.9999C11.9993 17.0608 12.4208 18.0782 13.1709 18.8283C13.9211 19.5785 14.9385 19.9999 15.9993 19.9999C17.0602 19.9999 18.0776 19.5785 18.8278 18.8283C19.5779 18.0782 19.9993 17.0608 19.9993 15.9999V5.33325C19.9993 4.27239 19.5779 3.25497 18.8278 2.50482C18.0776 1.75468 17.0602 1.33325 15.9993 1.33325Z" stroke="#1E1E1E" stroke-width="3" stroke-linecap="round" stroke-linejoin="round"/>
</g>
<defs>
<clipPath id="clip0_473_207">
<rect width="32" height="32" fill="white"/>
</clipPath>
</defs>
</svg>
