<svg width="38" height="38" viewBox="0 0 38 38" fill="none" xmlns="http://www.w3.org/2000/svg">
<path d="M7.91667 33.25C7.04583 33.25 6.29375 32.9465 5.66042 32.3396C5.05347 31.7063 4.75 30.9542 4.75 30.0833V7.91667C4.75 7.04583 5.05347 6.30695 5.66042 5.7C6.29375 5.06667 7.04583 4.75 7.91667 4.75H30.0833C30.9542 4.75 31.6931 5.06667 32.3 5.7C32.9333 6.30695 33.25 7.04583 33.25 7.91667V30.0833C33.25 30.9542 32.9333 31.7063 32.3 32.3396C31.6931 32.9465 30.9542 33.25 30.0833 33.25H7.91667ZM7.91667 30.0833H30.0833V7.91667H7.91667V30.0833ZM9.5 26.9167H28.5L22.5625 19L17.8125 25.3333L14.25 20.5833L9.5 26.9167ZM7.91667 30.0833V7.91667V30.0833Z" fill="#1D1B20"/>
</svg>
