<svg width="115" height="115" viewBox="0 0 115 115" fill="none" xmlns="http://www.w3.org/2000/svg">
<path d="M52.709 81.4583H62.2923V62.2916H81.459V52.7083H62.2923V33.5416H52.709V52.7083H33.5423V62.2916H52.709V81.4583ZM57.5007 105.417C50.8722 105.417 44.643 104.179 38.8132 101.703C32.9833 99.1475 27.9121 95.7135 23.5996 91.401C19.2871 87.0885 15.8531 82.0173 13.2975 76.1874C10.8218 70.3576 9.58398 64.1284 9.58398 57.4999C9.58398 50.8714 10.8218 44.6423 13.2975 38.8124C15.8531 32.9826 19.2871 27.9114 23.5996 23.5989C27.9121 19.2864 32.9833 15.8923 38.8132 13.4166C44.643 10.861 50.8722 9.58325 57.5007 9.58325C64.1291 9.58325 70.3583 10.861 76.1882 13.4166C82.018 15.8923 87.0892 19.2864 91.4017 23.5989C95.7142 27.9114 99.1083 32.9826 101.584 38.8124C104.14 44.6423 105.417 50.8714 105.417 57.4999C105.417 64.1284 104.14 70.3576 101.584 76.1874C99.1083 82.0173 95.7142 87.0885 91.4017 91.401C87.0892 95.7135 82.018 99.1475 76.1882 101.703C70.3583 104.179 64.1291 105.417 57.5007 105.417ZM57.5007 95.8333C68.202 95.8333 77.2663 92.1197 84.6934 84.6926C92.1205 77.2655 95.834 68.2013 95.834 57.4999C95.834 46.7985 92.1205 37.7343 84.6934 30.3072C77.2663 22.8801 68.202 19.1666 57.5007 19.1666C46.7993 19.1666 37.735 22.8801 30.3079 30.3072C22.8809 37.7343 19.1673 46.7985 19.1673 57.4999C19.1673 68.2013 22.8809 77.2655 30.3079 84.6926C37.735 92.1197 46.7993 95.8333 57.5007 95.8333Z" fill="#1D1B20"/>
</svg>
