<svg width="32" height="32" viewBox="0 0 32 32" fill="none" xmlns="http://www.w3.org/2000/svg">
<path d="M16.0007 16.0001C16.734 16.0001 17.3618 15.739 17.884 15.2167C18.4062 14.6945 18.6673 14.0667 18.6673 13.3334C18.6673 12.6001 18.4062 11.9723 17.884 11.4501C17.3618 10.9279 16.734 10.6667 16.0007 10.6667C15.2673 10.6667 14.6395 10.9279 14.1173 11.4501C13.5951 11.9723 13.334 12.6001 13.334 13.3334C13.334 14.0667 13.5951 14.6945 14.1173 15.2167C14.6395 15.739 15.2673 16.0001 16.0007 16.0001ZM16.0007 29.3334C12.4229 26.289 9.75065 23.4612 7.98398 20.8501C6.21732 18.239 5.33398 15.8223 5.33398 13.6001C5.33398 10.2667 6.40621 7.61119 8.55065 5.63341C10.6951 3.65564 13.1784 2.66675 16.0007 2.66675C18.8229 2.66675 21.3062 3.65564 23.4507 5.63341C25.5951 7.61119 26.6673 10.2667 26.6673 13.6001C26.6673 15.8223 25.784 18.239 24.0173 20.8501C22.2507 23.4612 19.5784 26.289 16.0007 29.3334Z" fill="#DF3721"/>
</svg>
